<svg xmlns="http://www.w3.org/2000/svg" enable-background="new 0 0 32 32" viewBox="0 0 32 32"><linearGradient id="a" x1="15.77" x2="15.77" y1="2.786" y2="27.666" gradientUnits="userSpaceOnUse"><stop offset="0" stop-color="#ffcc2f"/><stop offset="1" stop-color="#ff911c"/></linearGradient><path fill="url(#a)" d="M9,8.5v1C9,9.7761,8.7761,10,8.5,10h-1C7.2239,10,7,9.7761,7,9.5v-1C7,8.2238,7.2239,8,7.5,8h1C8.7761,8,9,8.2238,9,8.5z M10.5,10h6c0.2761,0,0.5-0.2239,0.5-0.5v-1C17,8.2238,16.7761,8,16.5,8h-6C10.2239,8,10,8.2238,10,8.5v1C10,9.7761,10.2239,10,10.5,10z M8.5,12h-1C7.2239,12,7,12.2238,7,12.5v1C7,13.7761,7.2239,14,7.5,14h1C8.7761,14,9,13.7761,9,13.5v-1C9,12.2238,8.7761,12,8.5,12z M10.5,14h6c0.2761,0,0.5-0.2239,0.5-0.5v-1c0-0.2762-0.2239-0.5-0.5-0.5h-6c-0.2761,0-0.5,0.2238-0.5,0.5v1C10,13.7761,10.2239,14,10.5,14z M8.5,16h-1C7.2239,16,7,16.2238,7,16.5v1C7,17.7761,7.2239,18,7.5,18h1C8.7761,18,9,17.7761,9,17.5v-1C9,16.2238,8.7761,16,8.5,16z M12.5,16h-2c-0.2761,0-0.5,0.2238-0.5,0.5v1c0,0.2761,0.2239,0.5,0.5,0.5h2c0.2761,0,0.5-0.2239,0.5-0.5v-1C13,16.2238,12.7761,16,12.5,16z M28.373,15.3329l-0.7462-0.6661c-0.2059-0.1838-0.522-0.166-0.7059,0.04l-2.0405,2.2852c-1.0357-1.0096-2.3823-1.6962-3.8805-1.9121V6c0-1.6543-1.3457-3-3-3H6C4.3457,3,3,4.3457,3,6v14c0,1.6543,1.3457,3,3,3h7.0799c0.488,3.3862,3.4011,6,6.9201,6c3.8594,0,7-3.1406,7-7c0-1.2303-0.3216-2.3859-0.8815-3.3917l2.2944-2.5693C28.5969,15.833,28.579,15.5169,28.373,15.3329z M5,20V6c0-0.5518,0.4482-1,1-1h12c0.5518,0,1,0.4482,1,1v9.0799c-3.0587,0.4408-5.4793,2.8614-5.9201,5.9201H6C5.4482,21,5,20.5518,5,20z M25,22c0,2.7568-2.2432,5-5,5s-5-2.2432-5-5s2.2432-5,5-5c1.3867,0,2.6417,0.569,3.5484,1.4839l-2.9146,3.2642l-1.538-1.9693c-0.1699-0.2176-0.4841-0.2563-0.7017-0.0864l-0.788,0.6151c-0.2177,0.1699-0.2563,0.4842-0.0864,0.7018l2.2743,2.9125c0.1826,0.2334,0.459,0.374,0.7549,0.3838c0.0117,0.001,0.0225,0.001,0.0332,0.001c0.2842,0,0.5557-0.1211,0.7461-0.334l3.335-3.7346C24.8718,20.788,25,21.3778,25,22z"/></svg>