<svg id="SvgjsSvg1001" width="288" height="288" xmlns="http://www.w3.org/2000/svg" version="1.1" xmlns:xlink="http://www.w3.org/1999/xlink" xmlns:svgjs="http://svgjs.com/svgjs"><defs id="SvgjsDefs1002"></defs><g id="SvgjsG1008" transform="matrix(1,0,0,1,0,0)"><svg xmlns="http://www.w3.org/2000/svg" enable-background="new 0 0 64 64" viewBox="0 0 64 64" width="288" height="288"><circle cx="32" cy="32" r="32" fill="#767fad" class="color4d94bc svgShape"></circle><path fill="#ffffff" d="M32,44.6c-4.68,0-8.49-3.81-8.49-8.49c0-4.68,3.81-8.49,8.49-8.49c4.68,0,8.49,3.81,8.49,8.49
					C40.49,40.79,36.68,44.6,32,44.6z M32,28.86c-4,0-7.25,3.25-7.25,7.25c0,4,3.25,7.25,7.25,7.25s7.25-3.25,7.25-7.25
					C39.25,32.11,36,28.86,32,28.86z" class="colorfff svgShape"></path><path fill="#ffffff" d="M30.67,39.58c-0.16,0-0.32-0.06-0.44-0.18l-3.04-3.04c-0.24-0.24-0.24-0.64,0-0.88
					c0.24-0.24,0.64-0.24,0.88,0l2.6,2.6l5.27-5.27c0.24-0.24,0.64-0.24,0.88,0c0.24,0.24,0.24,0.64,0,0.88l-5.7,5.71
					C30.98,39.52,30.82,39.58,30.67,39.58z" class="colorfff svgShape"></path><path fill="#ffffff" d="M45.26,52.5H18.75c-0.8,0-1.44-0.65-1.44-1.45V17.24c0-0.8,0.65-1.46,1.44-1.46h4.9
								c0.34,0,0.62,0.28,0.62,0.62c0,0.34-0.28,0.62-0.62,0.62h-4.9c-0.11,0-0.2,0.1-0.2,0.21v33.81c0,0.11,0.09,0.21,0.2,0.21
								h26.51c0.11,0,0.2-0.09,0.2-0.21V17.24c0-0.12-0.09-0.21-0.2-0.21h-4.9c-0.34,0-0.62-0.28-0.62-0.62
								c0-0.34,0.28-0.62,0.62-0.62h4.9c0.8,0,1.44,0.65,1.44,1.46v33.81C46.7,51.85,46.05,52.5,45.26,52.5z" class="colorfff svgShape"></path><path fill="#ffffff" d="M46.08 21.88H17.92c-.34 0-.62-.28-.62-.62 0-.34.28-.62.62-.62h28.16c.34 0 .62.28.62.62C46.7 21.6 46.42 21.88 46.08 21.88zM40.35 18.57h-16.7c-.34 0-.62-.28-.62-.62v-2.39c0-1.06.86-1.92 1.92-1.92h4.36c.28-1.22 1.38-2.14 2.69-2.14 1.31 0 2.41.92 2.69 2.14h4.36c1.06 0 1.92.86 1.92 1.92v2.39C40.97 18.3 40.7 18.57 40.35 18.57zM24.27 17.33h15.46v-1.77c0-.37-.3-.68-.68-.68h-4.91c-.34 0-.62-.28-.62-.62 0-.84-.68-1.52-1.52-1.52-.84 0-1.52.68-1.52 1.52 0 .34-.28.62-.62.62h-4.91c-.37 0-.68.3-.68.68V17.33z" class="colorfff svgShape"></path></svg></g></svg>