<svg xmlns="http://www.w3.org/2000/svg" enable-background="new 0 0 36 36" viewBox="0 0 36 36"><path fill="#EFEFEF" d="M8.377,4.167c6.917,0,11.667-3.583,15-3.583S33.71,2.5,33.71,17.833s-9.417,17.583-13.083,17.583C3.46,35.417-3.873,4.167,8.377,4.167z"/><rect width="2" height="1" x="7.033" y="7.71" fill="#A4AFC1" transform="rotate(-45.001 8.033 8.21)"/><rect width="2" height="1" x="2.967" y="11.776" fill="#A4AFC1" transform="rotate(-45.001 3.967 12.276)"/><rect width="1" height="2" x="3.467" y="7.033" fill="#A4AFC1" transform="rotate(-44.992 3.966 8.033)"/><path fill="#A4AFC1" d="M27.25,31.5c-0.827,0-1.5-0.673-1.5-1.5s0.673-1.5,1.5-1.5s1.5,0.673,1.5,1.5S28.077,31.5,27.25,31.5z M27.25,29.5c-0.275,0-0.5,0.224-0.5,0.5s0.225,0.5,0.5,0.5s0.5-0.224,0.5-0.5S27.525,29.5,27.25,29.5z"/><path fill="#2FDF84" d="M17.999,6.75c-1.279,0-9.135,4.517-9.771,5.625c-0.636,1.108-0.64,10.143,0,11.25c0.639,1.107,8.493,5.625,9.771,5.625c1.277,0,9.132-4.522,9.772-5.625c0.639-1.103,0.639-10.153,0-11.25C27.131,11.278,19.278,6.75,17.999,6.75z"/><path fill="#00B871" d="M10.478,23.625c-0.64-1.107-0.636-10.142,0-11.25c0.53-0.925,6.075-4.213,8.645-5.281C18.614,6.883,18.21,6.75,17.999,6.75c-1.279,0-9.135,4.517-9.771,5.625s-0.64,10.143,0,11.25c0.639,1.107,8.493,5.625,9.771,5.625c0.212,0,0.615-0.133,1.125-0.345C16.556,27.838,11.012,24.549,10.478,23.625z"/><path d="M17.999,30c-1.56,0-9.643-4.654-10.42-6c-0.774-1.342-0.775-10.649-0.001-11.999C8.351,10.656,16.434,6,17.999,6c1.553,0,9.635,4.652,10.419,5.997c0.783,1.343,0.784,10.655,0.001,12.004C27.639,25.347,19.556,30,17.999,30z M17.999,7.5c-1.176,0.092-8.486,4.3-9.124,5.254c-0.501,1.021-0.501,9.472,0.007,10.501c0.633,0.943,7.973,5.168,9.125,5.244c1.134-0.076,8.476-4.302,9.119-5.258c0.5-1.018,0.501-9.465-0.008-10.497C26.48,11.805,19.169,7.593,17.999,7.5z"/><path d="M20.507,18.75h-5.016c-0.202,0-0.396-0.082-0.536-0.226c-0.142-0.145-0.219-0.339-0.214-0.542c0.009-0.385,0.011-0.938,0.013-1.549c0.003-1.36,0.008-2.901,0.088-3.754l1.494,0.142c-0.074,0.784-0.079,2.355-0.082,3.617c-0.001,0.287-0.002,0.562-0.004,0.812h3.509c-0.002-1.158-0.021-2.325-0.06-3.476l1.5-0.049c0.045,1.382,0.064,2.786,0.058,4.172V18C21.257,18.414,20.921,18.75,20.507,18.75z"/><path d="M21.244,23.25h-1.5c0-1.235,0.028-2.959,0.045-3.794c-0.007-0.09-0.021-0.256-0.027-0.706l-3.521,0.021c-0.004,1.143-0.006,2.046,0.064,3.441l-1.498,0.076c-0.072-1.436-0.07-2.402-0.066-3.521L14.741,18c0-0.414,0.336-0.75,0.75-0.75h5.016c0.414,0,0.75,0.336,0.75,0.75c0,0.964,0.019,1.227,0.026,1.338c0.002,0.023,0.006,0.125,0.006,0.148C21.272,20.314,21.244,22.025,21.244,23.25z"/><path d="M20.505 25.998c-.771 0-2.346-2.133-2.442-2.381-.113-.291-.039-.687.193-.895l0 0c.358-.302 4.152-.305 4.489-.002.23.208.306.603.193.893-.096.248-1.658 2.385-2.429 2.385C20.509 25.998 20.507 25.998 20.505 25.998zM20.25 24.001c.089.095.176.186.256.268.08-.082.166-.173.254-.268C20.591 24 20.419 24 20.25 24.001zM15.479 13.507c-1.031 0-2.056-.075-2.224-.227-.23-.208-.306-.603-.193-.893.096-.248 1.658-2.385 2.429-2.385.001 0 .003 0 .005 0 .771 0 2.346 2.133 2.442 2.381.113.291.039.687-.193.895l0 0C17.564 13.43 16.518 13.507 15.479 13.507zM15.24 12c.167 0 .341 0 .51 0-.089-.095-.176-.186-.256-.268C15.414 11.813 15.328 11.904 15.24 12z"/></svg>