<svg xmlns="http://www.w3.org/2000/svg" data-name="Layer 1" viewBox="0 0 64 64"><path fill="#5479a8" d="M62.548,56.119l-.524-.289a.836.836,0,0,1-.445-.841,6.924,6.924,0,0,0,0-1.978.836.836,0,0,1,.445-.841l.524-.289a.845.845,0,0,0,.331-1.181l-1.45-2.4a.927.927,0,0,0-1.235-.316l-.53.292a.959.959,0,0,1-1.029-.084,7.685,7.685,0,0,0-1.692-.939.89.89,0,0,1-.589-.81v-.579a.885.885,0,0,0-.9-.864h-2.9a.885.885,0,0,0-.9.864v.579a.89.89,0,0,1-.589.81,7.685,7.685,0,0,0-1.692.939.959.959,0,0,1-1.029.084l-.53-.292a.927.927,0,0,0-1.235.316l-1.45,2.4a.845.845,0,0,0,.331,1.181l.524.289a.836.836,0,0,1,.445.841,6.924,6.924,0,0,0,0,1.978.836.836,0,0,1-.445.841l-.524.289a.845.845,0,0,0-.331,1.181l1.45,2.4a.927.927,0,0,0,1.235.316l.53-.292a.959.959,0,0,1,1.029.084,7.685,7.685,0,0,0,1.692.939.89.89,0,0,1,.589.81v.579a.885.885,0,0,0,.9.864h2.9a.885.885,0,0,0,.9-.864v-.579a.89.89,0,0,1,.589-.81,7.685,7.685,0,0,0,1.692-.939.959.959,0,0,1,1.029-.084l.53.292a.927.927,0,0,0,1.235-.316l1.45-2.4A.845.845,0,0,0,62.548,56.119ZM54,57.375A3.375,3.375,0,1,1,57.375,54,3.375,3.375,0,0,1,54,57.375Z"/><path fill="#f2cc61" d="M34.451,33.727H17.723V29.545H16.678a3.137,3.137,0,0,1-3.137-3.136h0a3.137,3.137,0,0,1,3.137-3.136h1.045V17c-.272,0-.543.01-.815.021a16.726,16.726,0,0,0-5.457,32.21v7.5A6.277,6.277,0,0,0,17.723,63,6.282,6.282,0,0,0,24,56.727v-7.5A16.741,16.741,0,0,0,34.451,33.727Z"/><path fill="#61768c" d="M24,52.55v4.18A5.884,5.884,0,0,1,23.86,58a4.765,4.765,0,0,1-.23.82,6.082,6.082,0,0,1-1.47,2.34,6.262,6.262,0,0,1-10.34-2.34,4.765,4.765,0,0,1-.23-.82,5.884,5.884,0,0,1-.14-1.27V52.55Z"/><path fill="#738ca6" d="M24,56v.73A5.884,5.884,0,0,1,23.86,58H11.59a5.884,5.884,0,0,1-.14-1.27V56Z"/><path fill="#ffc94d" d="M29.09,10.948V2.09A25.912,25.912,0,0,1,55,28H29.09V20.692H27.872A4.872,4.872,0,0,1,23,15.82h0a4.872,4.872,0,0,1,4.872-4.872Z"/><rect width="2" height="2" x="38.36" y="20" fill="#6b8199" rx="1"/><path fill="#6b8199" d="M39.36,12a8.009,8.009,0,0,0-6.448,3.27l1.615,1.18a5.992,5.992,0,0,1,9.665,0l1.616-1.178A8.006,8.006,0,0,0,39.36,12Z"/><path fill="#6b8199" d="M39.36,16a3.986,3.986,0,0,0-3.231,1.646l1.623,1.168a2.055,2.055,0,0,1,3.217,0l1.623-1.168A3.986,3.986,0,0,0,39.36,16Z"/><rect width="4" height="2" x="52.964" y="6.003" fill="#b8cfe6" transform="rotate(-40.644 54.963 7.003)"/><rect width="2" height="4" x="57.006" y="11.617" fill="#b8cfe6" transform="rotate(-85.631 58.006 13.617)"/><rect width="4" height="2" x="46.887" y="1.994" fill="#b8cfe6" transform="rotate(-85.631 48.887 2.994)"/></svg>