<svg id="SvgjsSvg1035" width="288" height="288" xmlns="http://www.w3.org/2000/svg" version="1.1" xmlns:xlink="http://www.w3.org/1999/xlink" xmlns:svgjs="http://svgjs.com/svgjs"><defs id="SvgjsDefs1036"></defs><g id="SvgjsG1037"><svg xmlns="http://www.w3.org/2000/svg" enable-background="new 0 0 64 64" viewBox="0 0 64 64" width="288" height="288"><path fill="#2b5fa9" d="M32,0C14.35,0,0,14.35,0,32c0,17.64,14.35,32,32,32c17.64,0,32-14.36,32-32C64,14.35,49.64,0,32,0z M32,62.06
		C15.42,62.06,1.94,48.57,1.94,32C1.94,15.42,15.42,1.94,32,1.94c16.57,0,30.06,13.48,30.06,30.06C62.06,48.57,48.57,62.06,32,62.06
		z" class="color2b5fa9 svgShape"></path><path fill="#68a1d6" d="M32,1.94C15.42,1.94,1.94,15.42,1.94,32c0,16.57,13.48,30.06,30.06,30.06c16.57,0,30.06-13.49,30.06-30.06
		C62.06,15.42,48.57,1.94,32,1.94z M49.92,23.68l-22.51,22.5c-0.17,0.18-0.43,0.28-0.68,0.28c-0.26,0-0.5-0.1-0.69-0.28L14.07,34.21
		c-0.17-0.18-0.28-0.44-0.28-0.69c0-0.26,0.11-0.5,0.28-0.69l5.23-5.22c0.18-0.18,0.45-0.3,0.7-0.28c0.26,0,0.51,0.12,0.7,0.3
		l6.55,7l16.81-16.82c0.38-0.38,0.99-0.38,1.37,0l4.5,4.5C50.3,22.69,50.3,23.3,49.92,23.68z" class="color68a1d6 svgShape"></path><path fill="#2b5fa9" d="M49.92,22.31l-4.5-4.5c-0.38-0.38-0.99-0.38-1.37,0L27.24,34.64l-6.55-7c-0.18-0.18-0.44-0.3-0.7-0.3
		c-0.25-0.02-0.51,0.1-0.7,0.28l-5.23,5.22c-0.17,0.18-0.28,0.43-0.28,0.69c0,0.25,0.11,0.5,0.28,0.69l11.98,11.97
		c0.18,0.18,0.43,0.28,0.69,0.28c0.25,0,0.5-0.1,0.68-0.28l22.51-22.5C50.3,23.3,50.3,22.69,49.92,22.31z M26.73,44.12l-10.6-10.6
		l3.82-3.82l6.55,6.99c0.18,0.19,0.43,0.3,0.69,0.31c0.24,0,0.52-0.1,0.71-0.28l16.84-16.84l3.11,3.11L26.73,44.12z" class="color2b5fa9 svgShape"></path><path fill="#d8dbe0" d="M47.85,22.99L26.73,44.12l-10.6-10.6l3.82-3.82l6.55,6.99c0.18,0.19,0.43,0.3,0.69,0.31
		c0.24,0,0.52-0.1,0.71-0.28l16.84-16.84L47.85,22.99z" class="colord8dbe0 svgShape"></path></svg></g></svg>