<svg xmlns="http://www.w3.org/2000/svg" enable-background="new 0 0 64 64" viewBox="0 0 64 64"><path fill="#34495c" d="M32,64c-0.16,0-0.32-0.04-0.46-0.12C11.5,52.94,0.46,31.65,0.46,3.94V0.97c0-0.35,0.19-0.67,0.49-0.84
			c0.3-0.17,0.68-0.17,0.98,0.01c14.81,8.91,29.41,0.1,29.56,0.01c0.31-0.19,0.71-0.19,1.02,0c0.15,0.09,14.75,8.91,29.56-0.01
			c0.3-0.18,0.67-0.19,0.98-0.01c0.3,0.17,0.49,0.49,0.49,0.84v2.97c0,27.71-11.04,49-31.08,59.94C32.32,63.96,32.16,64,32,64z
			 M2.4,2.63v1.31C2.4,30.7,12.91,51.26,32,61.92C51.09,51.26,61.6,30.7,61.6,3.94V2.63C47.89,9.91,34.72,3.56,32,2.08
			C29.28,3.56,16.11,9.91,2.4,2.63z"/><path fill="#f7b74e" d="M28.61,33.63c-0.25,0-0.5-0.09-0.69-0.28l-4.54-4.54c-0.38-0.38-0.38-0.99,0-1.37
				c0.38-0.38,0.99-0.38,1.37,0l3.86,3.86l10.65-10.65c0.38-0.38,0.99-0.38,1.37,0c0.38,0.38,0.38,0.99,0,1.37L29.29,33.34
				C29.1,33.53,28.85,33.63,28.61,33.63z"/><path fill="#f7b74e" d="M32,41.78c-8.15,0-14.78-6.63-14.78-14.78c0-8.15,6.63-14.78,14.78-14.78c8.15,0,14.78,6.63,14.78,14.78
				C46.78,35.14,40.15,41.78,32,41.78z M32,14.15c-7.08,0-12.84,5.76-12.84,12.84c0,7.08,5.76,12.84,12.84,12.84
				s12.84-5.76,12.84-12.84C44.84,19.91,39.08,14.15,32,14.15z"/></svg>