<svg xmlns="http://www.w3.org/2000/svg" enable-background="new 0 0 93 93" viewBox="0 0 93 93"><path fill="#FFDDD6" d="M81.0294189 39.222126H53.2008057c-4.2385254 0-7.6743164 3.435791-7.6743164 7.6743164v1.623291c0 4.2384033 3.435791 7.6743164 7.6743164 7.6743164h27.8286133c4.6865234 0 8.4858398-3.7993164 8.4858398-8.486084C89.5152588 43.0213203 85.7159424 39.222126 81.0294189 39.222126zM20.6536865 63.6073799h-8.6831055c-4.6865234 0-8.4858398 3.7993202-8.4858398 8.4859657s3.7993164 8.4859619 8.4858398 8.4859619h8.6831055c4.6865234 0 8.4858398-3.7993164 8.4858398-8.4859619S25.34021 63.6073799 20.6536865 63.6073799zM27.4261475 18.7309151H13.2955322c-4.6867676 0-8.486084 3.7993164-8.486084 8.4859619s3.7993164 8.4859619 8.486084 8.4859619h14.1306152c4.6867676 0 8.486084-3.7993164 8.486084-8.4859619S32.112915 18.7309151 27.4261475 18.7309151z"/><circle cx="59.748" cy="13.818" r="2.091" fill="#FF765B"/><circle cx="80.312" cy="26.757" r="1.384" fill="#FFF2D7"/><circle cx="12.636" cy="53.183" r="1.702" fill="#FFBF5A"/><circle cx="83.037" cy="73.479" r="2.725" fill="#F68CFF"/><path fill="#FFF" d="M63.6429749,41.8169746c0.5361786,4.8810043-1.1027184,9.3814507-4.0689011,12.6572304
		c-3.055378,3.3742867-4.8911743,7.6732407-4.8911743,12.2252884v0.0000076H40.4697151v-0.0009995
		c0-4.5413094-1.8162918-8.8412132-4.8708076-12.2017784c-2.6035538-2.864418-4.1902714-6.6699486-4.1902714-10.8492966
		c0-9.5391273,8.2658138-17.151516,18.0242901-16.0638504C56.8433647,28.4095325,62.8287926,34.4052315,63.6429749,41.8169746z"/><path fill="#FF765B" d="M47.9604836,80.6232376H47.191906c-4.4836311-0.0000076-8.1183357-3.6347046-8.1183357-8.1183395
		v-8.1804276h17.005249v8.1804276C56.0788193,76.988533,52.4441185,80.6232376,47.9604836,80.6232376z"/><circle cx="47.576" cy="42.624" r="8.733" fill="#FF765B"/><path fill="#FFF" d="M47.5762939,45.616169c-0.4143066,0-0.75-0.3359375-0.75-0.75v-1.1748047
				c0-0.8891602,0.5275879-1.6992188,1.3771973-2.1147461c0.4992676-0.2441406,0.9313965-0.8344727,0.7712402-1.6040039
				c-0.1115723-0.5351563-0.5466309-0.9702148-1.0822754-1.081543c-0.4440918-0.09375-0.8769531,0.0083008-1.2182617,0.2866211
				c-0.3364258,0.2734375-0.529541,0.6787109-0.529541,1.1118164c0,0.4140625-0.3356934,0.75-0.75,0.75s-0.75-0.3359375-0.75-0.75
				c0-0.8867188,0.3947754-1.7163086,1.083252-2.2758789c0.6879883-0.559082,1.5881348-0.7739258,2.4707031-0.5913086
				c1.1108398,0.2319336,2.0129395,1.1337891,2.2443848,2.2446289c0.2766113,1.3276367-0.3735352,2.6674805-1.5808105,3.2573242
				c-0.3354492,0.1640625-0.5358887,0.4506836-0.5358887,0.7670898v1.1748047
				C48.3262939,45.2802315,47.9906006,45.616169,47.5762939,45.616169z"/><circle cx="47.731" cy="47.351" r=".785" fill="#FFF"/><g><path d="M64.637085 41.7074776c-.9216881-8.3884735-8.1019783-15.2275391-17.0603027-15.2275391-9.4665527 0-17.1682129 7.7011719-17.1682129 17.1674805 0 4.2729492 1.5805664 8.3647461 4.4504395 11.5214844 2.2473145 2.4726563 3.7185059 5.4179688 4.3088379 8.5058594h-.7441406v8.8300819c0 4.8349609 3.9333496 8.7680664 8.7683105 8.7680664h.7685547c4.8347168 0 8.7680664-3.9331055 8.7680664-8.7680664v-8.8300819h-.7416992c.5939941-3.0843506 2.0717773-6.0373535 4.3283691-8.5292969C63.6011963 51.5160713 65.1763916 46.6186104 64.637085 41.7074776zM55.428833 64.9745712v3.1186523H39.7235107v-3.1186523H55.428833zM39.7547607 73.1239853h15.6425781c-.0710449.8601074-.2880859 1.6778564-.626709 2.4311523h-14.388916C40.0428467 74.8018417 39.8260498 73.9840927 39.7547607 73.1239853zM39.7235107 71.8241806v-2.4311523H55.428833v2.4311523H39.7235107zM47.9605713 79.9731064h-.7685547c-2.4943848 0-4.701416-1.2336426-6.0585938-3.1181641h12.885498C52.6619873 78.7394638 50.4549561 79.9731064 47.9605713 79.9731064zM53.9559326 63.6747627H41.1988525c-.6083984-3.5842285-2.2722168-7.0039063-4.8598633-9.8510742-2.534668-2.7880859-3.9304199-6.4018555-3.9304199-10.1762695 0-8.3632813 6.8044434-15.1674805 15.1682129-15.1674805 7.9594383 0 14.2625923 6.0769005 15.0720215 13.4462891.4841309 4.40625-.8710938 8.6240234-3.815918 11.8764648C56.2371826 56.6697578 54.567749 60.0959053 53.9559326 63.6747627zM45.6297607 20.2753487l1.4465332-1.4445801v5.9318848c0 .2763672.223877.5.5.5s.5-.2236328.5-.5v-5.934082l1.4460449 1.4462891c.1953125.1953125.5117188.1953125.7070313 0s.1953125-.5117188 0-.7070313l-2.2978516-2.2983398c-.1814995-.1814995-.5090141-.2034893-.7119141.0046387l-2.2963867 2.2932129c-.1955566.1953125-.1955566.5117188-.0004883.7075195C45.1178741 20.4700069 45.4339523 20.4701767 45.6297607 20.2753487z"/><path d="M29.2440186 29.0858955c.0002441 0 .0002441 0 .0002441 0 .276123 0 .5-.2236328.5002441-.4995117l.0014648-2.0441895 4.1943359 4.1945801c.1953087.1953068.5117149.1953182.7070313 0 .1953125-.1953125.1953125-.5117188 0-.7070313l-4.1955566-4.1958008h2.0449219c.276123 0 .5-.2236328.5-.5s-.223877-.5-.5-.5h-3.2497559c-.2628136 0-.504097.2208786-.5.5072021l-.0024414 3.2442627C28.7442627 28.8617744 28.9678955 29.0858955 29.2440186 29.0858955zM29.3763428 43.7494698c0-.2763672-.223877-.5-.5-.5h-5.9333496l1.4455566-1.4458008c.1953125-.1953125.1953125-.5117188 0-.7070313s-.5117188-.1953125-.7070313 0l-2.2978516 2.2978516c-.189167.189167-.1998158.5110817.0041504.7114258l2.293457 2.296875c.1951466.1951447.5112247.1953163.7070313.0004883.1953125-.1953125.1955566-.5117188.0004883-.7075195l-1.4445801-1.4462891h5.9321289C29.1524658 44.2494698 29.3763428 44.0258369 29.3763428 43.7494698zM34.1436768 56.678669l-4.1960449 4.1955566v-2.045166c0-.2763672-.223877-.5-.5-.5s-.5.2236328-.5.5v3.25c0 .246273.2057667.5009766.5012207.5009766.001709 0 .0031738-.0009766.005127-.0009766l3.2456055.0024414h.0004883c.2758789 0 .4997559-.2236328.5-.4995117.0002441-.2763672-.2233887-.5004883-.4995117-.5004883l-2.0446777-.0014648 4.1948242-4.1943359c.1953125-.1953125.1953125-.5117188 0-.7070313S34.3389893 56.4833565 34.1436768 56.678669zM66.1959229 58.1259346h-.0004883c-.2758789 0-.4997559.2236328-.5.4995117l-.001709 2.0439453-4.1943359-4.1943359c-.1953125-.1953125-.5117188-.1953125-.7070313 0s-.1953125.5117188 0 .7070313l4.1962891 4.1962891h-2.0456543c-.276123 0-.5.2236328-.5.5s.223877.5.5.5h3.2497559c.2626266 0 .5041809-.2147217.5-.5090332l.0026855-3.2429199C66.6956787 58.3500557 66.4720459 58.1259346 66.1959229 58.1259346zM74.0506592 43.1048164l-2.2922363-2.2957764c-.1950684-.1953125-.5114746-.1948242-.7070313-.0004883-.1953125.1953125-.1955566.5117188-.0004883.7075195l1.4443359 1.4462891h-5.9318848c-.276123 0-.5.2236328-.5.5s.223877.5.5.5h5.934082l-1.4462891 1.4462891c-.1953125.1953125-.1953125.5117188 0 .7070313.1953049.1953087.5117111.1953163.7070313 0l2.2980957-2.2978516C74.231163 43.6423073 74.2676086 43.3168869 74.0506592 43.1048164zM61.2962646 30.5336494l4.1958008-4.1960449v2.045166c0 .2763672.223877.5.5.5s.5-.2236328.5-.5v-3.2495117c0-.2436237-.206955-.5048161-.5087891-.5l-3.2429199-.0029297c-.0002441 0-.0002441 0-.0002441 0-.276123 0-.5.2236328-.5002441.4995117-.0002441.2763672.2233887.5.4995117.5004883l2.0441895.0018311-4.1943359 4.194458c-.1953125.1953125-.1953125.5117188 0 .7070313C60.7845421 30.7289562 61.1009483 30.7289677 61.2962646 30.5336494z"/></g></svg>