<svg xmlns="http://www.w3.org/2000/svg" data-name="Layer 1" viewBox="0 0 48 48"><path fill="#b9d5ea" d="M19 40a1 1 0 0 1-1-1V32a1 1 0 0 1 2 0v7A1 1 0 0 1 19 40zM28 40a1 1 0 0 1-.71-.29l-4-4A1 1 0 0 1 23 35V32a1 1 0 0 1 2 0v2.59l3.71 3.7a1 1 0 0 1 0 1.42A1 1 0 0 1 28 40zM38 40a1 1 0 0 1-.71-.29L33.59 36H29a1 1 0 0 1-1-1V32a1 1 0 0 1 2 0v2h4a1 1 0 0 1 .71.29l4 4a1 1 0 0 1 0 1.42A1 1 0 0 1 38 40zM9 40a1 1 0 0 1-1-1V35a1 1 0 0 1 1-1h5V32a1 1 0 0 1 2 0v3a1 1 0 0 1-1 1H10v3A1 1 0 0 1 9 40z"/><path fill="#48bdff" d="M34.83,15.11A11,11,0,0,0,13,17v0a7.49,7.49,0,0,0,.5,15h20a8.5,8.5,0,0,0,1.33-16.89Z"/><circle cx="9" cy="40" r="2" fill="#48bdff"/><circle cx="39" cy="40" r="2" fill="#48bdff"/><circle cx="29" cy="40" r="2" fill="#48bdff"/><circle cx="19" cy="40" r="2" fill="#48bdff"/></svg>