<svg xmlns="http://www.w3.org/2000/svg" viewBox="0 0 64 64"><g data-name="Layer 22"><rect width="4" height="8" x="30" y="20" fill="#606060"/><rect width="2" height="8" x="30" y="20" fill="gray"/><rect width="28" height="18" x="18" y="2" fill="gray" rx="2"/><rect width="25" height="18" x="18" y="2" fill="#999" rx="2"/><path fill="#54bce8" d="M20,2H44a2,2,0,0,1,2,2V14a0,0,0,0,1,0,0H18a0,0,0,0,1,0,0V4A2,2,0,0,1,20,2Z"/><path fill="#7fcdee" d="M41,2H20a2,2,0,0,0-2,2V14H43V4A2,2,0,0,0,41,2Z"/><rect width="26" height="8" x="36" y="38" fill="gray" transform="rotate(180 49 42)"/><rect width="23" height="8" x="36" y="38" fill="#999"/><rect width="26" height="8" x="36" y="46" fill="gray" transform="rotate(180 49 50)"/><rect width="23" height="8" x="36" y="46" fill="#999"/><rect width="26" height="8" x="36" y="54" fill="gray" transform="rotate(180 49 58)"/><rect width="23" height="8" x="36" y="54" fill="#999"/><rect width="26" height="8" x="2" y="54" fill="gray" transform="rotate(180 15 58)"/><rect width="23" height="8" x="2" y="54" fill="#999"/><rect width="26" height="8" x="2" y="46" fill="gray" transform="rotate(180 15 50)"/><rect width="23" height="8" x="2" y="46" fill="#999"/><rect width="26" height="8" x="2" y="38" fill="gray" transform="rotate(180 15 42)"/><rect width="23" height="8" x="2" y="38" fill="#999"/><rect width="26" height="8" x="2" y="54" fill="none" stroke="#000" stroke-linejoin="round" stroke-width="2"/><line x1="5" x2="7" y1="58" y2="58" fill="none" stroke="#000" stroke-linejoin="round" stroke-width="2"/><line x1="9" x2="11" y1="58" y2="58" fill="none" stroke="#000" stroke-linejoin="round" stroke-width="2"/><line x1="25" x2="17" y1="58" y2="58" fill="none" stroke="#000" stroke-linejoin="round" stroke-width="2"/><rect width="26" height="8" x="2" y="46" fill="none" stroke="#000" stroke-linejoin="round" stroke-width="2"/><line x1="5" x2="7" y1="50" y2="50" fill="none" stroke="#000" stroke-linejoin="round" stroke-width="2"/><line x1="9" x2="11" y1="50" y2="50" fill="none" stroke="#000" stroke-linejoin="round" stroke-width="2"/><line x1="25" x2="17" y1="50" y2="50" fill="none" stroke="#000" stroke-linejoin="round" stroke-width="2"/><rect width="26" height="8" x="2" y="38" fill="none" stroke="#000" stroke-linejoin="round" stroke-width="2"/><line x1="5" x2="7" y1="42" y2="42" fill="none" stroke="#000" stroke-linejoin="round" stroke-width="2"/><line x1="9" x2="11" y1="42" y2="42" fill="none" stroke="#000" stroke-linejoin="round" stroke-width="2"/><line x1="25" x2="17" y1="42" y2="42" fill="none" stroke="#000" stroke-linejoin="round" stroke-width="2"/><rect width="26" height="8" x="36" y="54" fill="none" stroke="#000" stroke-linejoin="round" stroke-width="2" transform="rotate(180 49 58)"/><line x1="59" x2="57" y1="58" y2="58" fill="none" stroke="#000" stroke-linejoin="round" stroke-width="2"/><line x1="55" x2="53" y1="58" y2="58" fill="none" stroke="#000" stroke-linejoin="round" stroke-width="2"/><line x1="39" x2="47" y1="58" y2="58" fill="none" stroke="#000" stroke-linejoin="round" stroke-width="2"/><rect width="26" height="8" x="36" y="46" fill="none" stroke="#000" stroke-linejoin="round" stroke-width="2" transform="rotate(180 49 50)"/><line x1="59" x2="57" y1="50" y2="50" fill="none" stroke="#000" stroke-linejoin="round" stroke-width="2"/><line x1="55" x2="53" y1="50" y2="50" fill="none" stroke="#000" stroke-linejoin="round" stroke-width="2"/><line x1="39" x2="47" y1="50" y2="50" fill="none" stroke="#000" stroke-linejoin="round" stroke-width="2"/><rect width="26" height="8" x="36" y="38" fill="none" stroke="#000" stroke-linejoin="round" stroke-width="2" transform="rotate(180 49 42)"/><line x1="59" x2="57" y1="42" y2="42" fill="none" stroke="#000" stroke-linejoin="round" stroke-width="2"/><line x1="55" x2="53" y1="42" y2="42" fill="none" stroke="#000" stroke-linejoin="round" stroke-width="2"/><line x1="39" x2="47" y1="42" y2="42" fill="none" stroke="#000" stroke-linejoin="round" stroke-width="2"/><rect width="28" height="18" x="18" y="2" fill="none" stroke="#000" stroke-linejoin="round" stroke-width="2" rx="2"/><rect width="4" height="8" x="30" y="20" fill="none" stroke="#000" stroke-linejoin="round" stroke-width="2"/><line x1="25" x2="39" y1="28" y2="28" fill="none" stroke="#000" stroke-linejoin="round" stroke-width="2"/><line x1="18" x2="46" y1="14" y2="14" fill="none" stroke="#000" stroke-linejoin="round" stroke-width="2"/><polyline fill="none" stroke="#000" stroke-linejoin="round" stroke-width="2" points="6 38 6 32 58 32 58 38"/><line x1="32" x2="32" y1="32" y2="28" fill="none" stroke="#000" stroke-linejoin="round" stroke-width="2"/><line x1="24" x2="28" y1="10" y2="6" fill="none" stroke="#000" stroke-linejoin="round" stroke-width="2"/><line x1="30" x2="34" y1="10" y2="6" fill="none" stroke="#000" stroke-linejoin="round" stroke-width="2"/><line x1="36" x2="40" y1="10" y2="6" fill="none" stroke="#000" stroke-linejoin="round" stroke-width="2"/></g></svg>