<svg id="SvgjsSvg1054" width="288" height="288" xmlns="http://www.w3.org/2000/svg" version="1.1" xmlns:xlink="http://www.w3.org/1999/xlink" xmlns:svgjs="http://svgjs.com/svgjs"><defs id="SvgjsDefs1055"></defs><g id="SvgjsG1056"><svg xmlns="http://www.w3.org/2000/svg" data-name="Layer 1" viewBox="0 0 64 64" width="288" height="288"><path fill="#f0d584" d="M42,45.18179a9.9905,9.9905,0,0,0-19.875-1.63242A10.25171,10.25171,0,0,0,26.00866,53.323,2.53272,2.53272,0,0,1,27,55.33976l0,1.29659H37l0-1.2946a2.52925,2.52925,0,0,1,.986-2.01471A10.21289,10.21289,0,0,0,42,45.18179Z" class="colorf0d584 svgShape"></path><path fill="#526273" d="M40.65228,9.18182a.91031.91031,0,0,1-.85876-.65643,8.11585,8.11585,0,0,0-.53333-1.28387A.91109.91109,0,0,1,39.403,6.16827l.95367-.95367L37.96027,2.81812l-.17487-.17487-.95367.95373a.91111.91111,0,0,1-1.07325.14283,8.11022,8.11022,0,0,0-1.28387-.53333.91031.91031,0,0,1-.65643-.85876V1H30.18182V2.34772a.91031.91031,0,0,1-.65643.85876,8.11022,8.11022,0,0,0-1.28387.53333A.91111.91111,0,0,1,27.16827,3.597l-.95367-.95373L23.64331,5.2146l.95367.95367a.91109.91109,0,0,1,.14283,1.07325,8.11585,8.11585,0,0,0-.53333,1.28387.91031.91031,0,0,1-.85876.65643H22v3.63636h1.34772a.91031.91031,0,0,1,.85876.65643,8.11819,8.11819,0,0,0,.53333,1.28387.91111.91111,0,0,1-.14283,1.07325l-.95367.95367,2.57129,2.57129.95367-.95367a.91092.91092,0,0,1,1.07325-.14283,8.11561,8.11561,0,0,0,1.28387.53327.91038.91038,0,0,1,.65643.85882V21h3.63636V19.65228a.91038.91038,0,0,1,.65643-.85882,8.11561,8.11561,0,0,0,1.28387-.53327.91092.91092,0,0,1,1.07325.14283l.95367.95367,2.57129-2.57129-.95367-.95367a.91111.91111,0,0,1-.14283-1.07325,8.11819,8.11819,0,0,0,.53333-1.28387.91031.91031,0,0,1,.85876-.65643H42V9.18182ZM32,15.5A4.5,4.5,0,1,1,36.5,11,4.5,4.5,0,0,1,32,15.5Z" class="color526273 svgShape"></path><path fill="#64788c" d="M33,57H31V52.48047l-3.96-3.168A2.75706,2.75706,0,0,1,26,47.14844v-.377A2.77446,2.77446,0,0,1,28.77148,44h.28028a2.76823,2.76823,0,0,1,2.30664,1.23389.77094.77094,0,0,0,1.2832.00049A2.76749,2.76749,0,0,1,34.94824,44h.28028A2.77446,2.77446,0,0,1,38,46.77148v.49463a2.75666,2.75666,0,0,1-.81055,1.95948L34.707,51.707,33.293,50.293l2.48144-2.481A.76747.76747,0,0,0,36,47.26611v-.49463A.77217.77217,0,0,0,35.22852,46h-.28028a.7699.7699,0,0,0-.64258.34424,2.77144,2.77144,0,0,1-4.61132-.00049A.77064.77064,0,0,0,29.05176,46h-.28028A.77217.77217,0,0,0,28,46.77148v.377a.76749.76749,0,0,0,.29.60254l4.335,3.46826A.99887.99887,0,0,1,33,52Z" class="color64788c svgShape"></path><path fill="#82ace6" d="M59.94763,30.65216c-.52868-8.19873-5.80029-15.49249-14.16931-19.55255l-.873,1.7998c7.66614,3.71894,12.50574,10.33442,13.0354,17.75275H55.4l3.6,6,3.6-6Z" class="color82ace6 svgShape"></path><path fill="#5981b3" d="M6.4209,35.92578l2.33935-.12945-3.926-5.79194-3.263,6.18976,2.8363-.157c1.49457,7.56958,7.10883,14.066,15.20282,17.49262l.7793-1.8418C13.01251,48.56494,7.869,42.72479,6.4209,35.92578Z" class="color5981b3 svgShape"></path><path fill="#82ace6" d="M42.6709,52.06641l.71289,1.86816c7.27832-2.77783,12.84766-8.09375,15.2793-14.584l-1.873-.70118C54.55957,44.60205,49.41309,49.49268,42.6709,52.06641Z" class="color82ace6 svgShape"></path><path fill="#5981b3" d="M19.4248,12.7417l-.8496-1.81055C11.49219,14.252,6.42383,20.0166,4.67188,26.74756l1.93554.5039C8.209,21.09814,12.88086,15.80957,19.4248,12.7417Z" class="color5981b3 svgShape"></path><path fill="#526073" d="M27,56.63635v2.54546A3.78455,3.78455,0,0,0,30.75,63h2.5A3.78455,3.78455,0,0,0,37,59.18181V56.63635Z" class="color526073 svgShape"></path><rect width="10" height="2.545" x="27" y="56.636" fill="#5b6d80" class="color5b6d80 svgShape"></rect></svg></g></svg>