<svg xmlns="http://www.w3.org/2000/svg" data-name="Layer 1" viewBox="0 0 64 64"><path fill="#bdfed8" d="M48.81,13.17A9,9,0,0,0,40,6a8.78,8.78,0,0,0-2.92.5A12,12,0,0,0,15,13c0,.07,0,.13,0,.2A10,10,0,0,0,17,33H47a10,10,0,0,0,1.81-19.83Z" class="colorbde0fe svgShape"></path><path fill="#11cb5f" d="M20,13H18a9,9,0,0,1,9-9V6A7,7,0,0,0,20,13Z" class="colora2d2ff svgShape"></path><rect width="34" height="10" x="15" y="53" fill="#b4dbc4" class="colorcdb4db svgShape"></rect><rect width="2" height="2" x="18" y="57" fill="#11cb5f" class="colora2d2ff svgShape"></rect><rect width="2" height="2" x="22" y="57" fill="#11cb5f" class="colora2d2ff svgShape"></rect><rect width="12" height="2" x="26" y="57" fill="#11cb5f" class="colora2d2ff svgShape"></rect><rect width="34" height="10" x="15" y="39" fill="#11cb5f" class="colora2d2ff svgShape"></rect><rect width="2" height="2" x="18" y="43" fill="#c8ffdf" class="colorffc8dd svgShape"></rect><rect width="2" height="2" x="22" y="43" fill="#c8ffdf" class="colorffc8dd svgShape"></rect><rect width="12" height="2" x="26" y="43" fill="#c8ffdf" class="colorffc8dd svgShape"></rect><rect width="34" height="10" x="15" y="25" fill="#b4dbc4" class="colorcdb4db svgShape"></rect><rect width="2" height="2" x="18" y="29" fill="#bdfed8" class="colorbde0fe svgShape"></rect><rect width="2" height="2" x="22" y="29" fill="#bdfed8" class="colorbde0fe svgShape"></rect><rect width="12" height="2" x="26" y="29" fill="#bdfed8" class="colorbde0fe svgShape"></rect><rect width="2" height="4" x="29" y="35" fill="#c8ffdf" class="colorffc8dd svgShape"></rect><rect width="2" height="4" x="33" y="35" fill="#c8ffdf" class="colorffc8dd svgShape"></rect><rect width="2" height="4" x="29" y="49" fill="#c8ffdf" class="colorffc8dd svgShape"></rect><rect width="2" height="4" x="33" y="49" fill="#c8ffdf" class="colorffc8dd svgShape"></rect></svg>